<svg enable-background="new 0 0 512 512" height="512" viewBox="0 0 512 512" width="512" xmlns="http://www.w3.org/2000/svg"><path d="m445.36 107.61h-376c-17.673 0-32 14.327-32 32v236c0 17.673 14.327 32 32 32h376c17.673 0 32-14.327 32-32v-236c0-17.673-14.327-32-32-32zm-188 176.876-184.56-156.876h369.12zm-200-143.751 120.492 102.418-120.492 129.761zm135.746 115.384 57.777 49.11c1.867 1.587 4.172 2.381 6.477 2.381s4.609-.794 6.477-2.381l57.777-49.11 122.1 131.491h-372.707zm143.762-12.966 120.492-102.418v232.179z"/></svg>